<svg xmlns="http://www.w3.org/2000/svg" viewBox="0 0 160 160" role="img" aria-label="Gia Thinh Toy Store logo">
  <rect width="160" height="160" rx="32" fill="#cceefa"/>
  <circle cx="55" cy="47" r="20" fill="#ffb51f" stroke="#7c2e0d" stroke-width="6"/>
  <circle cx="105" cy="47" r="20" fill="#ffb51f" stroke="#7c2e0d" stroke-width="6"/>
  <ellipse cx="80" cy="75" rx="42" ry="48" fill="#ffb51f" stroke="#7c2e0d" stroke-width="7"/>
  <circle cx="66" cy="67" r="4" fill="#7c2e0d"/>
  <circle cx="94" cy="67" r="4" fill="#7c2e0d"/>
  <ellipse cx="80" cy="86" rx="22" ry="17" fill="#fff8df" stroke="#7c2e0d" stroke-width="5"/>
  <ellipse cx="80" cy="82" rx="9" ry="7" fill="#7c2e0d"/>
  <path d="M80 89c-5 5-11 6-17 4m17-4c5 5 11 6 17 4" fill="none" stroke="#7c2e0d" stroke-width="5" stroke-linecap="round"/>
  <path d="M50 96c-18 5-29 20-21 32 8 12 30 4 35-13" fill="#ffd36a" stroke="#7c2e0d" stroke-width="7" stroke-linecap="round" stroke-linejoin="round"/>
  <path d="M110 96c18 5 29 20 21 32-8 12-30 4-35-13" fill="#ffd36a" stroke="#7c2e0d" stroke-width="7" stroke-linecap="round" stroke-linejoin="round"/>
  <path d="M68 101l12 12 12-12" fill="none" stroke="#1399cf" stroke-width="7" stroke-linecap="round" stroke-linejoin="round"/>
  <path d="M80 113v18" fill="none" stroke="#1399cf" stroke-width="7" stroke-linecap="round"/>
  <text x="80" y="149" text-anchor="middle" font-family="Arial, sans-serif" font-size="18" font-weight="900" fill="#7c2e0d">GIA THINH</text>
</svg>
